<svg xmlns="http://www.w3.org/2000/svg" xmlns:xlink="http://www.w3.org/1999/xlink" width="200" zoomAndPan="magnify" viewBox="0 0 300 74.999997" height="50" preserveAspectRatio="xMidYMid meet" version="1.0"><defs><g/></defs><g fill="#000000" fill-opacity="1"><g transform="translate(7.500005, 49.566704)"><g><path d="M 12.828125 -7.109375 C 12.828125 -9.398438 12.050781 -11.480469 10.417969 -13.238281 C 12.050781 -15.035156 12.828125 -17.078125 12.828125 -19.40625 L 12.828125 -28.355469 C 12.871094 -28.96875 13.195312 -29.785156 15.320312 -29.785156 L 16.136719 -29.703125 C 16.628906 -29.703125 16.832031 -30.109375 16.832031 -30.480469 L 16.832031 -34.523438 C 16.832031 -34.808594 16.546875 -35.21875 16.054688 -35.300781 C 15.445312 -35.421875 14.464844 -35.542969 13.15625 -35.542969 C 9.558594 -35.542969 6.375 -33.214844 6.375 -29.007812 L 6.375 -19.160156 C 6.375 -17.40625 4.863281 -15.851562 3.105469 -15.851562 L 2.902344 -15.851562 C 2.453125 -15.851562 2.207031 -15.484375 2.207031 -15.15625 L 2.207031 -11.316406 C 2.207031 -10.992188 2.453125 -10.621094 2.902344 -10.621094 L 3.105469 -10.621094 C 4.863281 -10.621094 6.375 -9.109375 6.375 -7.355469 L 6.375 2.574219 C 6.375 6.78125 9.558594 9.109375 13.15625 9.109375 C 14.464844 9.109375 15.445312 8.988281 16.054688 8.867188 C 16.546875 8.785156 16.832031 8.375 16.832031 8.089844 L 16.832031 4.042969 C 16.832031 3.675781 16.628906 3.269531 16.136719 3.269531 L 15.320312 3.351562 C 13.195312 3.351562 12.871094 2.53125 12.828125 1.921875 Z M 12.828125 -7.109375 "/></g></g></g><g fill="#000000" fill-opacity="1"><g transform="translate(276.319289, 49.566704)"><g><path d="M 6.210938 1.921875 C 6.167969 2.53125 5.84375 3.351562 3.71875 3.351562 L 2.902344 3.269531 C 2.410156 3.269531 2.207031 3.675781 2.207031 4.042969 L 2.207031 8.089844 C 2.207031 8.375 2.492188 8.785156 2.984375 8.867188 C 3.59375 8.988281 4.574219 9.109375 5.882812 9.109375 C 9.480469 9.109375 12.664062 6.78125 12.664062 2.574219 L 12.664062 -7.355469 C 12.664062 -9.109375 14.175781 -10.621094 15.933594 -10.621094 L 16.136719 -10.621094 C 16.585938 -10.621094 16.832031 -10.992188 16.832031 -11.316406 L 16.832031 -15.15625 C 16.832031 -15.484375 16.585938 -15.851562 16.136719 -15.851562 L 15.933594 -15.851562 C 14.175781 -15.851562 12.664062 -17.40625 12.664062 -19.160156 L 12.664062 -29.007812 C 12.664062 -33.214844 9.480469 -35.542969 5.882812 -35.542969 C 4.574219 -35.542969 3.59375 -35.421875 2.984375 -35.300781 C 2.492188 -35.21875 2.207031 -34.808594 2.207031 -34.523438 L 2.207031 -30.480469 C 2.207031 -30.109375 2.410156 -29.703125 2.902344 -29.703125 L 3.71875 -29.785156 C 5.84375 -29.785156 6.167969 -28.96875 6.210938 -28.355469 L 6.210938 -19.40625 C 6.210938 -17.078125 6.988281 -15.035156 8.621094 -13.238281 C 6.988281 -11.480469 6.210938 -9.398438 6.210938 -7.109375 Z M 6.210938 1.921875 "/></g></g></g><g fill="#000000" fill-opacity="1"><g transform="translate(25.663354, 48.835543)"><g><path d="M 6.96875 0 L -0.125 -21.078125 L 7.6875 -21.078125 L 11.453125 -5.96875 L 15.265625 -21.078125 L 22.359375 -21.078125 L 15.265625 0 Z M 6.96875 0 "/></g></g></g><g fill="#000000" fill-opacity="1"><g transform="translate(47.893695, 48.835543)"><g><path d="M 1.921875 0 L 1.921875 -21.078125 L 9.53125 -21.078125 L 9.53125 0 Z M 1.921875 -22.828125 L 1.921875 -29.25 L 9.53125 -29.25 L 9.53125 -22.828125 Z M 1.921875 -22.828125 "/></g></g></g><g fill="#000000" fill-opacity="1"><g transform="translate(59.349333, 48.835543)"><g><path d="M 0.765625 -10.53125 C 0.765625 -11.976562 1.015625 -13.363281 1.515625 -14.6875 C 2.023438 -16.007812 2.765625 -17.171875 3.734375 -18.171875 C 4.710938 -19.171875 5.921875 -19.96875 7.359375 -20.5625 C 8.804688 -21.164062 10.46875 -21.46875 12.34375 -21.46875 C 14.90625 -21.46875 17.046875 -20.929688 18.765625 -19.859375 C 20.492188 -18.796875 21.785156 -17.425781 22.640625 -15.75 L 15.21875 -13.5 C 14.5 -14.539062 13.523438 -15.0625 12.296875 -15.0625 C 11.253906 -15.0625 10.375 -14.664062 9.65625 -13.875 C 8.9375 -13.09375 8.578125 -11.976562 8.578125 -10.53125 C 8.578125 -9.09375 8.9375 -7.976562 9.65625 -7.1875 C 10.375 -6.40625 11.253906 -6.015625 12.296875 -6.015625 C 13.523438 -6.015625 14.5 -6.535156 15.21875 -7.578125 L 22.640625 -5.328125 C 21.785156 -3.640625 20.492188 -2.257812 18.765625 -1.1875 C 17.046875 -0.125 14.90625 0.40625 12.34375 0.40625 C 10.46875 0.40625 8.804688 0.101562 7.359375 -0.5 C 5.921875 -1.101562 4.710938 -1.90625 3.734375 -2.90625 C 2.765625 -3.90625 2.023438 -5.066406 1.515625 -6.390625 C 1.015625 -7.710938 0.765625 -9.09375 0.765625 -10.53125 Z M 0.765625 -10.53125 "/></g></g></g><g fill="#000000" fill-opacity="1"><g transform="translate(82.420826, 48.835543)"><g><path d="M 12.296875 0.40625 C 10.453125 0.40625 8.804688 0.117188 7.359375 -0.453125 C 5.921875 -1.035156 4.710938 -1.816406 3.734375 -2.796875 C 2.765625 -3.785156 2.023438 -4.921875 1.515625 -6.203125 C 1.015625 -7.484375 0.765625 -8.832031 0.765625 -10.25 C 0.765625 -11.78125 1.007812 -13.222656 1.5 -14.578125 C 2 -15.941406 2.734375 -17.128906 3.703125 -18.140625 C 4.679688 -19.160156 5.882812 -19.96875 7.3125 -20.5625 C 8.738281 -21.164062 10.398438 -21.46875 12.296875 -21.46875 C 14.171875 -21.46875 15.828125 -21.164062 17.265625 -20.5625 C 18.710938 -19.96875 19.921875 -19.171875 20.890625 -18.171875 C 21.867188 -17.171875 22.601562 -16.007812 23.09375 -14.6875 C 23.59375 -13.363281 23.84375 -11.976562 23.84375 -10.53125 C 23.84375 -10.132812 23.820312 -9.726562 23.78125 -9.3125 C 23.738281 -8.894531 23.691406 -8.53125 23.640625 -8.21875 L 8.859375 -8.21875 C 8.929688 -7.09375 9.34375 -6.28125 10.09375 -5.78125 C 10.84375 -5.289062 11.660156 -5.046875 12.546875 -5.046875 C 13.367188 -5.046875 14.144531 -5.234375 14.875 -5.609375 C 15.613281 -5.984375 16.101562 -6.503906 16.34375 -7.171875 L 22.796875 -5.328125 C 21.941406 -3.640625 20.625 -2.257812 18.84375 -1.1875 C 17.070312 -0.125 14.890625 0.40625 12.296875 0.40625 Z M 15.671875 -12.78125 C 15.535156 -13.789062 15.160156 -14.585938 14.546875 -15.171875 C 13.929688 -15.765625 13.140625 -16.0625 12.171875 -16.0625 C 11.210938 -16.0625 10.425781 -15.765625 9.8125 -15.171875 C 9.195312 -14.585938 8.820312 -13.789062 8.6875 -12.78125 Z M 15.671875 -12.78125 "/></g></g></g><g fill="#000000" fill-opacity="1"><g transform="translate(106.854178, 48.835543)"><g><path d="M 23.109375 0 L 15.5 0 L 15.5 -11.859375 C 15.5 -12.898438 15.265625 -13.65625 14.796875 -14.125 C 14.335938 -14.59375 13.800781 -14.828125 13.1875 -14.828125 C 12.539062 -14.828125 11.859375 -14.546875 11.140625 -13.984375 C 10.421875 -13.421875 9.882812 -12.695312 9.53125 -11.8125 L 9.53125 0 L 1.921875 0 L 1.921875 -21.078125 L 8.78125 -21.078125 L 8.78125 -17.953125 C 9.519531 -19.097656 10.5625 -19.96875 11.90625 -20.5625 C 13.257812 -21.164062 14.859375 -21.46875 16.703125 -21.46875 C 18.148438 -21.46875 19.289062 -21.207031 20.125 -20.6875 C 20.96875 -20.164062 21.609375 -19.519531 22.046875 -18.75 C 22.492188 -17.976562 22.78125 -17.148438 22.90625 -16.265625 C 23.039062 -15.378906 23.109375 -14.578125 23.109375 -13.859375 Z M 23.109375 0 "/></g></g></g><g fill="#000000" fill-opacity="1"><g transform="translate(131.728127, 48.835543)"><g><path d="M 16.703125 -1.15625 C 15.640625 -0.707031 14.5 -0.328125 13.28125 -0.015625 C 12.0625 0.285156 10.863281 0.4375 9.6875 0.4375 C 8.832031 0.4375 8.019531 0.328125 7.25 0.109375 C 6.476562 -0.0976562 5.800781 -0.441406 5.21875 -0.921875 C 4.644531 -1.398438 4.191406 -2.023438 3.859375 -2.796875 C 3.523438 -3.578125 3.359375 -4.539062 3.359375 -5.6875 L 3.359375 -15.34375 L 0.765625 -15.34375 L 0.765625 -21.078125 L 3.359375 -21.078125 L 3.359375 -27.6875 L 10.984375 -27.6875 L 10.984375 -21.078125 L 15.109375 -21.078125 L 15.109375 -15.34375 L 10.984375 -15.34375 L 10.984375 -8.375 C 10.984375 -7.675781 11.128906 -7.1875 11.421875 -6.90625 C 11.710938 -6.625 12.113281 -6.484375 12.625 -6.484375 C 13 -6.484375 13.425781 -6.539062 13.90625 -6.65625 C 14.382812 -6.78125 14.863281 -6.953125 15.34375 -7.171875 Z M 16.703125 -1.15625 "/></g></g></g><g fill="#000000" fill-opacity="1"><g transform="translate(148.711306, 48.835543)"><g><path d="M 12.296875 0.40625 C 10.453125 0.40625 8.804688 0.117188 7.359375 -0.453125 C 5.921875 -1.035156 4.710938 -1.816406 3.734375 -2.796875 C 2.765625 -3.785156 2.023438 -4.921875 1.515625 -6.203125 C 1.015625 -7.484375 0.765625 -8.832031 0.765625 -10.25 C 0.765625 -11.78125 1.007812 -13.222656 1.5 -14.578125 C 2 -15.941406 2.734375 -17.128906 3.703125 -18.140625 C 4.679688 -19.160156 5.882812 -19.96875 7.3125 -20.5625 C 8.738281 -21.164062 10.398438 -21.46875 12.296875 -21.46875 C 14.171875 -21.46875 15.828125 -21.164062 17.265625 -20.5625 C 18.710938 -19.96875 19.921875 -19.171875 20.890625 -18.171875 C 21.867188 -17.171875 22.601562 -16.007812 23.09375 -14.6875 C 23.59375 -13.363281 23.84375 -11.976562 23.84375 -10.53125 C 23.84375 -10.132812 23.820312 -9.726562 23.78125 -9.3125 C 23.738281 -8.894531 23.691406 -8.53125 23.640625 -8.21875 L 8.859375 -8.21875 C 8.929688 -7.09375 9.34375 -6.28125 10.09375 -5.78125 C 10.84375 -5.289062 11.660156 -5.046875 12.546875 -5.046875 C 13.367188 -5.046875 14.144531 -5.234375 14.875 -5.609375 C 15.613281 -5.984375 16.101562 -6.503906 16.34375 -7.171875 L 22.796875 -5.328125 C 21.941406 -3.640625 20.625 -2.257812 18.84375 -1.1875 C 17.070312 -0.125 14.890625 0.40625 12.296875 0.40625 Z M 15.671875 -12.78125 C 15.535156 -13.789062 15.160156 -14.585938 14.546875 -15.171875 C 13.929688 -15.765625 13.140625 -16.0625 12.171875 -16.0625 C 11.210938 -16.0625 10.425781 -15.765625 9.8125 -15.171875 C 9.195312 -14.585938 8.820312 -13.789062 8.6875 -12.78125 Z M 15.671875 -12.78125 "/></g></g></g><g fill="#a6a6a6" fill-opacity="1"><g transform="translate(173.886393, 48.835543)"><g><path d="M 0.765625 -10.515625 C 0.765625 -11.960938 1.015625 -13.34375 1.515625 -14.65625 C 2.023438 -15.976562 2.765625 -17.140625 3.734375 -18.140625 C 4.710938 -19.140625 5.921875 -19.9375 7.359375 -20.53125 C 8.796875 -21.132812 10.445312 -21.4375 12.3125 -21.4375 C 14.875 -21.4375 17.015625 -20.898438 18.734375 -19.828125 C 20.453125 -18.765625 21.738281 -17.394531 22.59375 -15.71875 L 15.203125 -13.484375 C 14.484375 -14.523438 13.507812 -15.046875 12.28125 -15.046875 C 11.238281 -15.046875 10.359375 -14.648438 9.640625 -13.859375 C 8.921875 -13.078125 8.5625 -11.960938 8.5625 -10.515625 C 8.5625 -9.078125 8.921875 -7.960938 9.640625 -7.171875 C 10.359375 -6.390625 11.238281 -6 12.28125 -6 C 13.507812 -6 14.484375 -6.519531 15.203125 -7.5625 L 22.59375 -5.3125 C 21.738281 -3.632812 20.453125 -2.257812 18.734375 -1.1875 C 17.015625 -0.125 14.875 0.40625 12.3125 0.40625 C 10.445312 0.40625 8.796875 0.101562 7.359375 -0.5 C 5.921875 -1.101562 4.710938 -1.90625 3.734375 -2.90625 C 2.765625 -3.90625 2.023438 -5.0625 1.515625 -6.375 C 1.015625 -7.695312 0.765625 -9.078125 0.765625 -10.515625 Z M 0.765625 -10.515625 "/></g></g></g><g fill="#a6a6a6" fill-opacity="1"><g transform="translate(196.924102, 48.835543)"><g><path d="M 8.125 0.40625 C 7.082031 0.40625 6.109375 0.234375 5.203125 -0.109375 C 4.296875 -0.460938 3.515625 -0.9375 2.859375 -1.53125 C 2.203125 -2.132812 1.6875 -2.847656 1.3125 -3.671875 C 0.945312 -4.503906 0.765625 -5.398438 0.765625 -6.359375 C 0.765625 -7.421875 0.988281 -8.390625 1.4375 -9.265625 C 1.894531 -10.148438 2.519531 -10.910156 3.3125 -11.546875 C 4.113281 -12.191406 5.066406 -12.6875 6.171875 -13.03125 C 7.285156 -13.382812 8.507812 -13.5625 9.84375 -13.5625 C 11.550781 -13.5625 12.960938 -13.296875 14.078125 -12.765625 L 14.078125 -13.40625 C 14.078125 -14.382812 13.789062 -15.113281 13.21875 -15.59375 C 12.644531 -16.070312 11.71875 -16.3125 10.4375 -16.3125 C 9.238281 -16.3125 8.128906 -16.117188 7.109375 -15.734375 C 6.097656 -15.347656 5.035156 -14.785156 3.921875 -14.046875 L 1.71875 -18.765625 C 4.488281 -20.546875 7.648438 -21.4375 11.203125 -21.4375 C 14.554688 -21.4375 17.140625 -20.6875 18.953125 -19.1875 C 20.773438 -17.695312 21.6875 -15.460938 21.6875 -12.484375 L 21.6875 -8.40625 C 21.6875 -7.675781 21.816406 -7.171875 22.078125 -6.890625 C 22.347656 -6.617188 22.828125 -6.457031 23.515625 -6.40625 L 23.515625 0 C 22.828125 0.132812 22.175781 0.234375 21.5625 0.296875 C 20.945312 0.367188 20.398438 0.40625 19.921875 0.40625 C 18.554688 0.40625 17.519531 0.160156 16.8125 -0.328125 C 16.113281 -0.828125 15.65625 -1.554688 15.4375 -2.515625 L 15.28125 -3.28125 C 14.34375 -2.082031 13.257812 -1.164062 12.03125 -0.53125 C 10.8125 0.09375 9.507812 0.40625 8.125 0.40625 Z M 10.40625 -5.046875 C 10.851562 -5.046875 11.316406 -5.117188 11.796875 -5.265625 C 12.273438 -5.410156 12.703125 -5.601562 13.078125 -5.84375 C 13.367188 -6.050781 13.609375 -6.28125 13.796875 -6.53125 C 13.984375 -6.789062 14.078125 -7.050781 14.078125 -7.3125 L 14.078125 -8.875 C 13.628906 -9.039062 13.132812 -9.175781 12.59375 -9.28125 C 12.0625 -9.382812 11.582031 -9.4375 11.15625 -9.4375 C 10.226562 -9.4375 9.457031 -9.207031 8.84375 -8.75 C 8.226562 -8.300781 7.921875 -7.734375 7.921875 -7.046875 C 7.921875 -6.453125 8.148438 -5.96875 8.609375 -5.59375 C 9.078125 -5.226562 9.675781 -5.046875 10.40625 -5.046875 Z M 10.40625 -5.046875 "/></g></g></g><g fill="#a6a6a6" fill-opacity="1"><g transform="translate(221.081697, 48.835543)"><g><path d="M 1.796875 -29.203125 L 9.40625 -29.203125 L 9.40625 -8.875 C 9.40625 -7.28125 10.054688 -6.484375 11.359375 -6.484375 C 11.679688 -6.484375 12.023438 -6.535156 12.390625 -6.640625 C 12.765625 -6.742188 13.113281 -6.890625 13.4375 -7.078125 L 14.40625 -0.953125 C 13.5 -0.523438 12.476562 -0.191406 11.34375 0.046875 C 10.207031 0.285156 9.132812 0.40625 8.125 0.40625 C 6.09375 0.40625 4.53125 -0.113281 3.4375 -1.15625 C 2.34375 -2.195312 1.796875 -3.707031 1.796875 -5.6875 Z M 1.796875 -29.203125 "/></g></g></g><g fill="#a6a6a6" fill-opacity="1"><g transform="translate(235.600255, 48.835543)"><g><path d="M 3.515625 0 L 3.515625 -12.875 L 0.921875 -12.875 L 0.921875 -18.59375 L 3.515625 -18.59375 L 3.515625 -20.875 C 3.515625 -22.1875 3.703125 -23.378906 4.078125 -24.453125 C 4.453125 -25.535156 4.972656 -26.457031 5.640625 -27.21875 C 6.304688 -27.976562 7.113281 -28.5625 8.0625 -28.96875 C 9.007812 -29.382812 10.066406 -29.59375 11.234375 -29.59375 C 12.992188 -29.59375 14.941406 -29.195312 17.078125 -28.40625 L 15.796875 -22.640625 C 15.347656 -22.796875 14.863281 -22.925781 14.34375 -23.03125 C 13.820312 -23.144531 13.359375 -23.203125 12.953125 -23.203125 C 11.734375 -23.203125 11.125 -22.519531 11.125 -21.15625 L 11.125 -18.59375 L 15.71875 -18.59375 L 15.71875 -12.875 L 11.125 -12.875 L 11.125 0 Z M 3.515625 0 "/></g></g></g><g fill="#a6a6a6" fill-opacity="1"><g transform="translate(252.038615, 48.835543)"><g><path d="M 12.28125 0.40625 C 10.382812 0.40625 8.722656 0.101562 7.296875 -0.5 C 5.867188 -1.101562 4.664062 -1.90625 3.6875 -2.90625 C 2.71875 -3.90625 1.988281 -5.0625 1.5 -6.375 C 1.007812 -7.695312 0.765625 -9.078125 0.765625 -10.515625 C 0.765625 -11.960938 1.007812 -13.34375 1.5 -14.65625 C 1.988281 -15.976562 2.71875 -17.140625 3.6875 -18.140625 C 4.664062 -19.140625 5.867188 -19.9375 7.296875 -20.53125 C 8.722656 -21.132812 10.382812 -21.4375 12.28125 -21.4375 C 14.144531 -21.4375 15.796875 -21.132812 17.234375 -20.53125 C 18.679688 -19.9375 19.890625 -19.140625 20.859375 -18.140625 C 21.828125 -17.140625 22.554688 -15.976562 23.046875 -14.65625 C 23.546875 -13.34375 23.796875 -11.960938 23.796875 -10.515625 C 23.796875 -9.078125 23.546875 -7.695312 23.046875 -6.375 C 22.554688 -5.0625 21.828125 -3.90625 20.859375 -2.90625 C 19.890625 -1.90625 18.679688 -1.101562 17.234375 -0.5 C 15.796875 0.101562 14.144531 0.40625 12.28125 0.40625 Z M 8.5625 -10.515625 C 8.5625 -9.109375 8.90625 -8.003906 9.59375 -7.203125 C 10.289062 -6.398438 11.1875 -6 12.28125 -6 C 13.375 -6 14.265625 -6.398438 14.953125 -7.203125 C 15.648438 -8.003906 16 -9.109375 16 -10.515625 C 16 -11.929688 15.648438 -13.039062 14.953125 -13.84375 C 14.265625 -14.644531 13.375 -15.046875 12.28125 -15.046875 C 11.1875 -15.046875 10.289062 -14.644531 9.59375 -13.84375 C 8.90625 -13.039062 8.5625 -11.929688 8.5625 -10.515625 Z M 8.5625 -10.515625 "/></g></g></g></svg>